<?xml version="1.0" encoding="UTF-8" standalone="no"?>
<!-- Uploaded to: SVG Repo, www.svgrepo.com, Generator: SVG Repo Mixer Tools -->

<svg
   height="800px"
   width="800px"
   version="1.1"
   id="Layer_1"
   viewBox="0 0 512 512"
   xml:space="preserve"
   sodipodi:docname="moon.svg"
   inkscape:version="1.2.2 (1:1.2.2+202305151914+b0a8486541)"
   xmlns:inkscape="http://www.inkscape.org/namespaces/inkscape"
   xmlns:sodipodi="http://sodipodi.sourceforge.net/DTD/sodipodi-0.dtd"
   xmlns="http://www.w3.org/2000/svg"
   xmlns:svg="http://www.w3.org/2000/svg"><defs
   id="defs21" /><sodipodi:namedview
   id="namedview19"
   pagecolor="#ffffff"
   bordercolor="#000000"
   borderopacity="0.25"
   inkscape:showpageshadow="2"
   inkscape:pageopacity="0.0"
   inkscape:pagecheckerboard="0"
   inkscape:deskcolor="#d1d1d1"
   showgrid="false"
   inkscape:zoom="0.7327394"
   inkscape:cx="74.378421"
   inkscape:cy="309.11399"
   inkscape:window-width="1920"
   inkscape:window-height="996"
   inkscape:window-x="1680"
   inkscape:window-y="0"
   inkscape:window-maximized="1"
   inkscape:current-layer="layer1" />
<path
   style="display:none;fill:#ffd500"
   d="m 219.793,256 c 0,-106.304 77.081,-194.595 178.399,-212.056 -36.48,-21.438 -78.971,-33.745 -124.344,-33.745 -135.752,0 -245.8,110.049 -245.8,245.801 0,135.752 110.048,245.801 245.801,245.801 45.372,0 87.863,-12.307 124.344,-33.745 C 296.874,450.595 219.793,362.304 219.793,256 Z"
   id="path2" />
<g
   id="g16"
   style="display:none">
	<path
   style="fill:#3d3d3d"
   d="M 399.924,458.005 C 301.459,441.035 229.992,356.08 229.992,256 c 0,-100.08 71.467,-185.035 169.932,-202.005 4.218,-0.727 7.534,-4.011 8.302,-8.223 C 408.994,41.561 407.05,37.319 403.36,35.15 364.227,12.155 319.443,0 273.849,0 205.468,0 141.181,26.628 92.83,74.981 44.477,123.333 17.849,187.619 17.849,256 c 0,68.381 26.628,132.667 74.981,181.019 48.351,48.353 112.638,74.981 181.019,74.981 45.595,0 90.378,-12.155 129.511,-35.151 3.69,-2.169 5.634,-6.411 4.866,-10.622 -0.769,-4.211 -4.084,-7.495 -8.302,-8.222 z M 273.849,491.602 C 143.938,491.602 38.247,385.912 38.247,256 c 0,-129.912 105.69,-235.602 235.602,-235.602 32.902,0 65.338,6.873 95.167,20.039 -40.885,12.529 -77.747,36.647 -105.786,69.61 -34.587,40.663 -53.636,92.496 -53.636,145.953 0,53.457 19.049,105.29 53.636,145.953 28.039,32.963 64.902,57.081 105.786,69.61 -29.829,13.165 -62.266,20.039 -95.167,20.039 z"
   id="path4" />
	<path
   style="fill:#3d3d3d"
   d="M 77.402,268.615 C 77.138,264.445 77.004,260.2 77.004,256 c 0,-5.632 -4.567,-10.199 -10.199,-10.199 -5.632,0 -10.199,4.567 -10.199,10.199 0,4.627 0.148,9.305 0.438,13.903 0.342,5.402 4.829,9.556 10.17,9.556 0.216,0 0.434,-0.007 0.654,-0.02 5.619,-0.356 9.888,-5.201 9.534,-10.824 z"
   id="path6" />
	<path
   style="fill:#3d3d3d"
   d="M 163.315,418.906 C 131.06,396.975 106.243,366.37 91.546,330.399 c -2.13,-5.214 -8.08,-7.714 -13.299,-5.584 -5.214,2.131 -7.714,8.085 -5.584,13.299 16.218,39.696 43.599,73.466 79.182,97.66 1.756,1.194 3.751,1.765 5.726,1.765 3.263,0 6.47,-1.564 8.443,-4.465 3.167,-4.657 1.958,-11.001 -2.699,-14.168 z"
   id="path8" />
	<path
   style="fill:#3d3d3d"
   d="m 453.355,253.96 v -16.319 h 16.319 c 5.632,0 10.199,-4.567 10.199,-10.199 0,-5.632 -4.567,-10.199 -10.199,-10.199 h -16.319 v -16.319 c 0,-5.632 -4.567,-10.199 -10.199,-10.199 -5.632,0 -10.199,4.567 -10.199,10.199 v 16.319 h -16.319 c -5.632,0 -10.199,4.567 -10.199,10.199 0,5.632 4.567,10.199 10.199,10.199 h 16.319 v 16.319 c 0,5.632 4.567,10.199 10.199,10.199 5.631,0 10.199,-4.567 10.199,-10.199 z"
   id="path10" />
	<path
   style="fill:#3d3d3d"
   d="m 351.873,351.873 c 5.632,0 10.199,-4.567 10.199,-10.199 v -10.709 h 10.709 c 5.632,0 10.199,-4.567 10.199,-10.199 0,-5.632 -4.567,-10.199 -10.199,-10.199 h -10.709 v -10.709 c 0,-5.632 -4.567,-10.199 -10.199,-10.199 -5.632,0 -10.199,4.567 -10.199,10.199 v 10.709 h -10.709 c -5.632,0 -10.199,4.567 -10.199,10.199 0,5.632 4.567,10.199 10.199,10.199 h 10.709 v 10.709 c -10e-4,5.631 4.567,10.199 10.199,10.199 z"
   id="path12" />
	<path
   style="fill:#3d3d3d"
   d="m 483.952,357.992 h -5.1 v -5.1 c 0,-5.632 -4.567,-10.199 -10.199,-10.199 -5.632,0 -10.199,4.567 -10.199,10.199 v 5.1 h -5.1 c -5.632,0 -10.199,4.567 -10.199,10.199 0,5.632 4.567,10.199 10.199,10.199 h 5.1 v 5.1 c 0,5.632 4.567,10.199 10.199,10.199 5.632,0 10.199,-4.567 10.199,-10.199 v -5.1 h 5.1 c 5.632,0 10.199,-4.567 10.199,-10.199 0,-5.632 -4.567,-10.199 -10.199,-10.199 z"
   id="path14" />
</g>
<g
   inkscape:groupmode="layer"
   id="layer1"
   inkscape:label="Layer 1"><g
     id="g200"
     transform="translate(21.721993,7.8119195)"><path
       style="display:inline;fill:#f7b847;stroke-width:0.979447"
       d="M 238.40885,498.16237 C 200.61376,495.85402 161.89075,484.16561 129.71007,465.35203 60.801695,425.06657 16.956372,358.64801 5.9471408,277.87127 4.080771,264.17737 4.3493901,230.12322 6.4377329,215.67641 13.1041,169.55959 29.811921,129.89823 57.806887,93.735303 66.620654,82.349986 85.845213,62.8085 97.399318,53.490173 132.79539,24.94341 175.26567,6.3516773 219.13849,0.19778828 236.28998,-2.2079912 236.71379,-1.9655355 227.69933,5.0953825 182.99677,40.110351 153.47299,92.661962 147.08645,148.58432 c -1.3679,11.9777 -1.36923,39.77261 -0.002,50.18322 5.19603,39.57615 18.92245,73.67776 42.48502,105.54879 8.80067,11.9039 30.74621,33.86455 42.7407,42.77012 31.02565,23.0357 64.3373,36.57453 103.33162,41.997 15.97828,2.22192 49.87881,1.51969 65.8253,-1.36352 14.27731,-2.58141 27.21368,-6.05652 39.15378,-10.51793 9.79057,-3.65824 27.92282,-12.35737 34.77961,-16.68588 l 3.78983,-2.39242 -3.07989,6.15264 c -21.91337,43.77596 -63.67034,84.96478 -109.37784,107.88968 -28.50488,14.29681 -62.7759,23.83086 -91.81648,25.54294 -20.06306,1.18282 -23.80335,1.22928 -36.50685,0.45341 z M 187.69196,450.7436 c 0.89818,-3.23217 1.84389,-6.60297 2.10159,-7.49069 0.36574,-1.25992 -1.09683,-2.14756 -6.66673,-4.04609 -3.92437,-1.33765 -9.3957,-3.33853 -12.15849,-4.4464 l -5.02327,-2.01431 -3.05717,6.92152 c -1.68144,3.80684 -3.05717,7.47986 -3.05717,8.16226 0,1.0173 7.01841,3.85698 23.50671,9.51091 2.06812,0.70917 2.51037,0.0392 4.35453,-6.5972 z m -41.53983,-18.67046 c 2.24876,-4.07376 3.93245,-7.53443 3.74152,-7.69041 -0.19091,-0.15598 -4.69886,-2.99877 -10.01766,-6.31732 C 100.48584,393.48873 71.258318,356.23409 56.452064,311.72976 50.10847,292.66232 46.242585,271.25995 46.222942,255.09914 l -0.008,-6.61127 h -8.815019 -8.81502 l 0.01011,2.69348 c 0.0056,1.48141 0.463071,7.98249 1.016696,14.44684 6.017465,70.26242 43.471083,131.25889 103.426971,168.43981 4.76978,2.95792 8.75163,5.38566 8.84857,5.39499 0.097,0.01 2.01615,-3.31609 4.26492,-7.38985 z"
       id="path208" /></g></g></svg>
