<?xml version="1.0" encoding="UTF-8" standalone="no"?>
<svg
   class="svg-icon"
   style="width: 1em; height: 1em;vertical-align: middle;fill: currentColor;overflow: hidden;"
   viewBox="0 0 1024 1024"
   version="1.1"
   id="svg6"
   sodipodi:docname="sun.svg"
   xml:space="preserve"
   inkscape:version="1.2.2 (1:1.2.2+202305151914+b0a8486541)"
   xmlns:inkscape="http://www.inkscape.org/namespaces/inkscape"
   xmlns:sodipodi="http://sodipodi.sourceforge.net/DTD/sodipodi-0.dtd"
   xmlns="http://www.w3.org/2000/svg"
   xmlns:svg="http://www.w3.org/2000/svg"><defs
     id="defs10" /><sodipodi:namedview
     id="namedview8"
     pagecolor="#ffffff"
     bordercolor="#000000"
     borderopacity="0.25"
     inkscape:showpageshadow="2"
     inkscape:pageopacity="0.0"
     inkscape:pagecheckerboard="0"
     inkscape:deskcolor="#d1d1d1"
     showgrid="false"
     inkscape:zoom="0.57245266"
     inkscape:cx="448.07199"
     inkscape:cy="453.3126"
     inkscape:window-width="1920"
     inkscape:window-height="996"
     inkscape:window-x="1680"
     inkscape:window-y="0"
     inkscape:window-maximized="1"
     inkscape:current-layer="layer1" /><path
     d="m 512,496 m -201,0 a 201,201 0 1 0 402,0 201,201 0 1 0 -402,0 z"
     fill="#f9cc12"
     id="path2"
     style="display:none" /><path
     d="M 512,717 C 453,717 397.5,694 355.8,652.3 314,610.6 291,555.1 291,496 c 0,-59.1 23,-114.5 64.7,-156.2 41.7,-41.7 97.3,-64.7 156.3,-64.7 59,0 114.5,23 156.2,64.7 C 709.9,381.5 733,437 733,496 733,555 710,610.5 668.3,652.2 626.5,694 571,717 512,717 Z m 0,-401.9 c -99.8,0 -181,81.2 -181,181 0,99.8 81.2,181 181,181 99.8,0 181,-81.2 181,-181 0,-99.8 -81.2,-181 -181,-181 z m 0,-81.8 c -13.9,0 -25.3,-11.4 -25.3,-25.3 V 88.9 c 0,-13.9 11.4,-25.3 25.3,-25.3 13.9,0 25.3,11.4 25.3,25.3 v 119.2 c 0,13.9 -11.4,25.2 -25.3,25.2 z m -185.8,77 c -9.8,9.8 -25.9,9.8 -35.7,0 L 206.2,226 c -9.8,-9.8 -9.8,-25.9 0,-35.7 9.8,-9.8 25.9,-9.8 35.7,0 l 84.3,84.3 c 9.9,9.8 9.9,25.9 0,35.7 z M 249.3,496 c 0,13.9 -11.4,25.3 -25.3,25.3 H 104.8 c -13.9,0 -25.3,-11.4 -25.3,-25.3 0,-13.9 11.4,-25.3 25.3,-25.3 H 224 c 13.9,0.1 25.3,11.5 25.3,25.3 z m 76.9,185.8 c 9.8,9.8 9.8,25.9 0,35.7 l -84.3,84.3 c -9.8,9.8 -25.9,9.8 -35.7,0 -9.8,-9.8 -9.8,-25.9 0,-35.7 l 84.3,-84.3 c 9.8,-9.8 25.9,-9.8 35.7,0 z M 512,758.7 c 13.9,0 25.3,11.4 25.3,25.3 v 119.2 c 0,13.9 -11.4,25.3 -25.3,25.3 -13.9,0 -25.3,-11.4 -25.3,-25.3 V 784 c 0,-13.9 11.4,-25.3 25.3,-25.3 z m 185.8,-76.9 c 9.8,-9.8 25.9,-9.8 35.7,0 l 84.3,84.3 c 9.8,9.8 9.8,25.9 0,35.7 -9.8,9.8 -25.9,9.8 -35.7,0 l -84.3,-84.3 c -9.9,-9.8 -9.9,-25.9 0,-35.7 z M 774.7,496 c 0,-13.9 11.4,-25.3 25.3,-25.3 h 119.2 c 13.9,0 25.3,11.4 25.3,25.3 0,13.9 -11.4,25.3 -25.3,25.3 H 800 c -13.9,0 -25.3,-11.4 -25.3,-25.3 z M 697.8,310.3 c -9.8,-9.8 -9.8,-25.9 0,-35.7 l 84.3,-84.3 c 9.8,-9.8 25.9,-9.8 35.7,0 9.8,9.8 9.8,25.9 0,35.7 l -84.3,84.3 c -9.8,9.8 -25.9,9.8 -35.7,0 z"
     fill="#444d68"
     id="path4"
     style="display:none" /><g
     inkscape:groupmode="layer"
     id="layer1"
     inkscape:label="Layer 1"><g
       id="g183"
       transform="translate(1.1112016,-5.7955676)"><path
         style="display:inline;fill:#fec727;stroke-width:1.96821"
         d="m 524.07599,1027.4625 c 2.40995,-0.6411 5.94625,-0.8716 7.85845,-0.5122 1.9122,0.3593 -0.0597,0.8839 -4.38174,1.1656 -4.32215,0.2818 -5.88666,-0.012 -3.47671,-0.6534 z m 41.24226,-2.8975 c 2.40996,-0.6411 5.94626,-0.8716 7.85846,-0.5122 1.91219,0.3594 -0.0597,0.8839 -4.38174,1.1657 -4.32215,0.2817 -5.88667,-0.012 -3.47671,-0.6534 z M 106.21153,820.13552 C 92.717242,801.9919 79.680555,779.60263 81.986896,778.532 c 1.180206,-0.54787 10.516306,-6.71506 20.746884,-13.70488 10.23058,-6.9898 38.31696,-25.98907 62.41416,-42.22058 24.09721,-16.23154 43.74495,-30.48206 43.66164,-31.66784 -0.0833,-1.1858 -4.40127,-11.40529 -9.59547,-22.71002 -10.55673,-22.97579 -17.45641,-43.03406 -22.26099,-64.71557 -1.77542,-8.01186 -3.76178,-16.52668 -4.41414,-18.92183 l -1.18612,-4.35481 -78.266948,5.49863 -78.266947,5.49862 -2.012694,-15.63865 c -1.106981,-8.60126 -2.099842,-22.73355 -2.206356,-31.4051 L 10.406252,528.42352 88.5005,522.93703 c 85.20017,-5.98571 80.52403,-5.00453 79.70073,-16.72328 -1.02792,-14.63124 6.8891,-57.4874 15.92523,-86.20593 2.53982,-8.07205 4.53993,-15.78561 4.44469,-17.14127 -0.0952,-1.35564 -31.39836,-17.55163 -69.56248,-35.99106 C 80.844544,348.43605 49.529695,332.51394 49.420114,331.49301 49.223372,329.6601 63.144382,299.7404 70.970227,285.17647 l 4.0333,-7.50599 32.268843,15.64527 c 17.74786,8.60492 40.54299,19.64542 50.65585,24.53448 10.11285,4.88905 27.38676,13.28906 38.38645,18.66672 10.9997,5.37763 20.30299,9.75619 20.67398,9.73013 0.37098,-0.0261 5.07443,-6.79181 10.45212,-15.03499 11.01352,-16.88205 38.91682,-49.06736 54.32204,-62.65822 5.62174,-4.95965 10.94118,-9.75567 11.82097,-10.65786 0.87981,-0.90218 -5.27667,-11.65886 -13.68102,-23.90371 -39.6851,-57.81981 -71.47251,-106.21944 -70.99103,-108.09118 0.98311,-3.82181 47.42665,-34.924086 49.23333,-32.970546 0.4313,0.466343 19.31997,28.393576 41.97486,62.060516 22.65487,33.66695 42.0833,62.42837 43.17426,63.91427 2.2398,3.05066 2.19437,3.06558 33.86674,-11.11958 18.32961,-8.20933 59.01774,-20.93082 69.24203,-21.64912 11.7391,-0.82473 11.41961,3.95345 5.4332,-81.25666 l -5.48654,-78.094911 15.66124,-1.816886 c 8.61369,-0.999288 22.75389,-1.992704 31.42268,-2.207592 l 15.76144,-0.390706 5.49866,78.267515 5.49867,78.26752 4.48031,0.56491 c 2.46417,0.3107 11.17785,1.08591 19.36373,1.72267 22.15244,1.72321 42.98962,5.74672 67.22863,12.98138 11.92626,3.55966 22.64614,6.40451 23.82195,6.32191 1.17582,-0.0826 17.57309,-31.73635 36.43842,-70.34165 l 34.30055,-70.191458 12.14938,5.780424 c 6.68215,3.179234 12.47879,5.757281 12.88141,5.728995 0.40264,-0.02829 7.19697,3.512292 15.09851,7.867953 l 14.36646,7.919384 -8.34975,16.807372 c -4.59235,9.24406 -15.91563,32.42859 -25.16282,51.52118 -9.2472,19.0926 -21.08839,43.30389 -26.31375,53.80287 -5.22537,10.49899 -8.69233,19.71267 -7.70438,20.47487 0.98796,0.7622 6.91059,4.80891 13.16143,8.9927 6.25082,4.18377 16.47293,11.65393 22.71579,16.60034 l 11.35065,8.99348 -226.58752,260.68361 -226.58754,260.6836 -10.49721,-9.97534 c -5.77346,-5.48645 -14.60367,-14.55795 -19.62268,-20.1589 -5.01903,-5.60097 -9.8085,-10.85477 -10.64333,-11.67514 -0.8348,-0.82038 -9.6866,4.02619 -19.67063,10.77018 -9.98404,6.74396 -26.42421,17.85148 -36.5337,24.68335 -10.1095,6.83188 -31.32429,21.12475 -47.14399,31.76195 l -28.76309,19.34035 z m 651.73028,-52.29893 c 1.80337,-2.29645 3.72074,-4.20641 4.26082,-4.24436 0.54007,-0.0379 -0.49353,1.80993 -2.2969,4.10638 -1.80337,2.29646 -3.72074,4.20642 -4.26082,4.24436 -0.54007,0.0379 0.49353,-1.80993 2.2969,-4.10638 z m -457.95174,29.70764 -4.05151,-4.1535 4.68151,3.42871 c 4.39945,3.22213 5.67071,4.72028 4.09909,4.83069 -0.37268,0.0262 -2.50076,-1.82147 -4.72909,-4.1059 z M 787.15813,734.2239 c 1.80338,-2.29645 3.72074,-4.20641 4.26082,-4.24436 0.54008,-0.0379 -0.49353,1.80993 -2.2969,4.10638 -1.80337,2.29646 -3.72074,4.20642 -4.26081,4.24436 -0.54008,0.0379 0.49352,-1.80993 2.29689,-4.10638 z M 1015.6784,511.05608 c -0.2655,-3.77842 0.03,-5.35254 0.6568,-3.49803 0.6267,1.85451 0.8439,4.94595 0.4826,6.86987 -0.3612,1.92391 -0.874,0.40659 -1.1394,-3.37184 z m -3.0338,-43.18201 c -0.2654,-3.77842 0.03,-5.35254 0.6569,-3.49803 0.6266,1.85451 0.8438,4.94595 0.4826,6.86987 -0.3613,1.92391 -0.874,0.40659 -1.1395,-3.37184 z m -259.80152,-191.32653 -4.05151,-4.15351 4.68151,3.42871 c 4.39945,3.22214 5.67071,4.72028 4.09908,4.8307 -0.37267,0.0262 -2.50076,-1.82148 -4.72908,-4.1059 z"
         id="path187" /><path
         style="display:inline;fill:#feb000;stroke-width:1.96821"
         d="m 526.01317,1027.2716 -9.38025,-0.08 -5.50834,-78.40516 c -3.02958,-43.12287 -6.17141,-78.36219 -6.98183,-78.30961 -0.81039,0.053 -9.96383,-0.66099 -20.34091,-1.5857 -24.94128,-2.22253 -52.78191,-7.74725 -74.72077,-14.82769 -15.09088,-4.87035 -18.20018,-5.31098 -20.20503,-2.86332 -1.30321,1.59103 -14.20133,27.24619 -28.6625,57.01144 -14.46117,29.76524 -29.32382,60.31214 -33.02812,67.88198 l -6.73508,13.76333 -11.65224,-5.36424 c -9.27879,-4.27158 -40.1388,-19.66054 -42.99496,-21.44028 -0.35038,-0.21831 8.46674,-19.10688 19.59357,-41.97459 11.12682,-22.86769 26.30409,-54.08619 33.72727,-69.37442 7.42317,-15.28825 13.42745,-28.78196 13.34286,-29.98601 -0.0846,-1.20405 -4.79073,-5.35117 -10.45807,-9.2158 -5.66736,-3.86463 -16.0074,-11.32127 -22.97788,-16.57033 l -12.67358,-9.54375 226.97285,-261.225 226.97287,-261.22498 8.10871,7.90171 c 4.45979,4.34592 13.35759,13.52442 19.77292,20.39664 6.41532,6.87223 12.6353,12.42673 13.82219,12.34335 2.07467,-0.14576 13.55218,-7.70985 93.68603,-61.7425 20.0554,-13.52296 36.68788,-24.32288 36.96104,-23.99985 2.1081,2.49301 21.68888,30.90178 27.23335,39.5115 l 6.90953,10.7295 -6.06062,4.25268 c -3.33332,2.33899 -32.35295,21.8961 -64.48803,43.46026 -32.13509,21.56414 -58.80469,39.55717 -59.26578,39.98448 -0.46109,0.42733 1.10947,4.82458 3.49014,9.77168 14.66325,30.47075 24.40048,59.0459 32.46996,95.28735 l 1.62162,7.28297 78.26329,-5.49836 78.26332,-5.49837 2.4939,15.60484 c 1.3717,8.58266 2.3646,22.71496 2.2064,31.4051 l -0.2876,15.80026 -78.23196,5.49616 -78.23195,5.49617 -0.62811,9.41353 c -2.06478,30.94538 -8.68955,65.00771 -18.84996,96.92031 -1.66559,5.23137 -2.60501,9.81763 -2.08762,10.19168 0.51739,0.37405 32.40517,15.98274 70.86171,34.68599 l 69.92098,34.00593 -5.33326,11.57292 c -4.38218,9.50908 -19.82451,40.40382 -21.47272,42.95938 -0.24708,0.38311 -9.02851,-3.48078 -19.51427,-8.58644 -10.48579,-5.10565 -41.67966,-20.30022 -69.31971,-33.7657 -27.64007,-13.4655 -51.17178,-24.41828 -52.2927,-24.33953 -1.12093,0.0788 -5.11056,4.57527 -8.86583,9.99227 -16.40716,23.66734 -31.50624,41.62935 -49.33765,58.6925 -10.51978,10.06656 -19.0667,19.15935 -18.99316,20.2062 0.0735,1.04687 5.90818,10.46933 12.96586,20.9388 7.05767,10.46946 26.46157,39.24301 43.11978,63.94121 16.65821,24.6982 30.01775,45.13545 29.6879,45.41609 -2.42582,2.06393 -30.86597,21.65016 -39.52867,27.22271 l -10.71706,6.89406 -42.22589,-62.55331 c -23.22421,-34.40433 -43.43702,-63.65331 -44.91732,-64.99776 -2.23548,-2.03028 -5.07828,-1.29564 -16.77872,4.33601 -27.13626,13.0612 -55.57595,22.60437 -87.01605,29.19892 l -9.23852,1.93779 5.4875,78.10864 5.48751,78.10866 -13.16854,2.1826 c -13.18032,2.1846 -22.69807,2.8144 -40.27179,2.665 z"
         id="path185" /></g></g></svg>
